<?xml version="1.0" standalone="no"?><!DOCTYPE svg PUBLIC "-//W3C//DTD SVG 1.1//EN" "http://www.w3.org/Graphics/SVG/1.1/DTD/svg11.dtd"><svg t="1588650094093" class="icon" viewBox="0 0 1024 1024" version="1.1" xmlns="http://www.w3.org/2000/svg" p-id="2104" xmlns:xlink="http://www.w3.org/1999/xlink" width="200" height="200"><defs><style type="text/css"></style></defs><path d="M744.727273 954.181818c-13.963636-18.618182-4.654545-46.545455 13.963636-60.509091 79.127273-55.854545 134.981818-134.981818 158.254546-232.727272 60.509091-223.418182-74.472727-451.490909-297.89091-512-69.818182-18.618182-144.290909-18.618182-214.10909 0-144.290909 41.890909-260.654545 153.6-297.89091 297.890909-46.545455 167.563636 18.618182 349.090909 162.909091 446.836363 18.618182 13.963636 23.272727 41.890909 13.963637 60.509091-13.963636 23.272727-46.545455 32.581818-69.818182 13.963637C41.890909 847.127273-37.236364 628.363636 18.618182 418.909091c46.545455-176.872727 186.181818-316.509091 363.054545-363.054546 88.436364-23.272727 176.872727-23.272727 260.654546 0 274.618182 74.472727 432.872727 353.745455 363.054545 628.363637-32.581818 116.363636-97.745455 214.109091-195.490909 283.927273-18.618182 18.618182-51.2 13.963636-65.163636-13.963637z" fill="#31394C" p-id="2105"></path><path d="M465.454545 823.854545l46.545455-465.454545 46.545455 465.454545z" fill="#31394C" p-id="2106"></path></svg>