<?xml version="1.0" standalone="no"?><!DOCTYPE svg PUBLIC "-//W3C//DTD SVG 1.1//EN" "http://www.w3.org/Graphics/SVG/1.1/DTD/svg11.dtd"><svg t="1588860154894" class="icon" viewBox="0 0 1024 1024" version="1.1" xmlns="http://www.w3.org/2000/svg" p-id="4365" xmlns:xlink="http://www.w3.org/1999/xlink" width="200" height="200"><defs><style type="text/css"></style></defs><path d="M512 928.29c-50.92 0-100.33-9.99-146.88-29.66a377.024 377.024 0 0 1-64.1-34.8 379.138 379.138 0 0 1-55.81-46.05 379.138 379.138 0 0 1-46.05-55.81 376.655 376.655 0 0 1-34.79-64.1c-19.68-46.55-29.67-95.96-29.67-146.88s9.99-100.33 29.67-146.88c9.45-22.37 21.16-43.93 34.79-64.1a379.138 379.138 0 0 1 46.05-55.81c14.73-14.74 38.62-14.74 53.36 0 14.73 14.73 14.73 38.62 0 53.36-27.74 27.73-49.5 60.01-64.71 95.95-15.72 37.2-23.7 76.71-23.7 117.48 0 40.76 7.98 80.29 23.7 117.48 15.21 35.93 36.97 68.22 64.71 95.95 27.73 27.74 60.01 49.5 95.95 64.71 37.2 15.72 76.72 23.7 117.48 23.7s80.29-7.98 117.48-23.7c35.93-15.21 68.22-36.97 95.95-64.71 27.74-27.73 49.5-60.01 64.71-95.95 15.72-37.2 23.7-76.72 23.7-117.48 0-40.77-7.98-80.29-23.7-117.48-15.21-35.93-36.97-68.22-64.71-95.96-14.73-14.73-14.73-38.62 0-53.35 14.74-14.74 38.62-14.74 53.36 0a379.138 379.138 0 0 1 46.05 55.81 377.354 377.354 0 0 1 34.79 64.1c19.68 46.55 29.67 95.96 29.67 146.88s-9.99 100.33-29.67 146.88a376.974 376.974 0 0 1-34.79 64.1 379.138 379.138 0 0 1-46.05 55.81 379.138 379.138 0 0 1-55.81 46.05 377.404 377.404 0 0 1-64.1 34.8c-46.55 19.68-95.96 29.66-146.88 29.66z m37.73-415.03v-377.3c0-20.84-16.89-37.73-37.73-37.73-20.84 0-37.73 16.89-37.73 37.73v377.3c0 20.84 16.89 37.73 37.73 37.73 20.84 0 37.73-16.89 37.73-37.73z" fill="#040000" p-id="4366"></path></svg>