<?xml version="1.0" standalone="no"?><!DOCTYPE svg PUBLIC "-//W3C//DTD SVG 1.1//EN" "http://www.w3.org/Graphics/SVG/1.1/DTD/svg11.dtd"><svg t="1588858531248" class="icon" viewBox="0 0 1024 1024" version="1.1" xmlns="http://www.w3.org/2000/svg" p-id="2857" xmlns:xlink="http://www.w3.org/1999/xlink" width="200" height="200"><defs><style type="text/css"></style></defs><path d="M960 768a42.666667 42.666667 0 0 1-42.666667-42.666667V85.333333H320a42.666667 42.666667 0 0 1 0-85.333333h597.333333a85.333333 85.333333 0 0 1 85.333334 85.333333v640a42.666667 42.666667 0 0 1-42.666667 42.666667zM832 256v682.666667a85.333333 85.333333 0 0 1-85.333333 85.333333H106.666667a85.333333 85.333333 0 0 1-85.333334-85.333333V256a85.333333 85.333333 0 0 1 85.333334-85.333333h640a85.333333 85.333333 0 0 1 85.333333 85.333333zM106.666667 938.666667h640V256H106.666667v682.666667z m512-298.666667H234.666667a42.666667 42.666667 0 0 1 0-85.333333h384a42.666667 42.666667 0 0 1 0 85.333333z m0-170.666667H234.666667a42.666667 42.666667 0 0 1 0-85.333333h384a42.666667 42.666667 0 0 1 0 85.333333z m-384 256h213.333333a42.666667 42.666667 0 0 1 0 85.333334H234.666667a42.666667 42.666667 0 0 1 0-85.333334z" fill="#546176" p-id="2858"></path></svg>